<svg xmlns="http://www.w3.org/2000/svg" viewBox="0 0 500 500" width="150" height="150">
  <path d="M175.5,126.5c-2.9,0.6-5.6,1.5-8.1,2.6c-2.5,1.1-4.8,2.5-7,4.1c-2.2,1.6-4.2,3.4-6,5.4c-1.8,2-3.5,4.2-5,6.5
    c-1.5,2.3-2.8,4.8-4,7.4c-1.2,2.6-2.2,5.3-3,8.1c-0.8,2.8-1.5,5.7-2,8.6c-0.5,2.9-0.8,5.9-1,8.9c-0.2,3-0.2,6-0.1,9
    c0.1,3,0.4,6,0.8,9c0.4,3,1,5.9,1.7,8.8c0.7,2.9,1.6,5.7,2.6,8.5c1,2.8,2.2,5.5,3.5,8.1c1.3,2.6,2.8,5.1,4.4,7.5
    c1.6,2.4,3.4,4.7,5.3,6.8c1.9,2.1,4,4.1,6.2,5.9c2.2,1.8,4.6,3.4,7,4.9c2.4,1.5,5,2.7,7.6,3.8c2.6,1.1,5.4,1.9,8.2,2.6
    c2.8,0.7,5.7,1.1,8.6,1.4c2.9,0.3,5.8,0.4,8.7,0.3c2.9-0.1,5.8-0.4,8.7-0.8c2.9-0.4,5.7-1,8.5-1.8c2.8-0.8,5.5-1.7,8.1-2.8
    c2.6-1.1,5.1-2.3,7.5-3.7c2.4-1.4,4.7-2.9,6.9-4.6c2.2-1.7,4.2-3.5,6.1-5.4c1.9-1.9,3.7-4,5.3-6.1c1.6-2.1,3.1-4.4,4.5-6.7
    c1.4-2.3,2.6-4.7,3.7-7.2c1.1-2.5,2-5,2.8-7.6c0.8-2.6,1.4-5.3,1.9-8c0.5-2.7,0.8-5.4,1-8.2c0.2-2.8,0.2-5.6,0.1-8.4
    c-0.1-2.8-0.4-5.6-0.8-8.4c-0.4-2.8-1-5.5-1.7-8.2c-0.7-2.7-1.5-5.3-2.5-7.9c-1-2.6-2.1-5.1-3.3-7.5c-1.2-2.4-2.6-4.7-4.1-6.9
    c-1.5-2.2-3.1-4.3-4.8-6.3c-1.7-2-3.6-3.8-5.5-5.5c-1.9-1.7-4-3.3-6.1-4.7c-2.1-1.4-4.4-2.7-6.7-3.8c-2.3-1.1-4.7-2.1-7.1-2.9
    c-2.4-0.8-4.9-1.5-7.5-2c-2.6-0.5-5.2-0.9-7.8-1.1c-2.6-0.2-5.3-0.3-7.9-0.2c-2.6,0.1-5.3,0.3-7.9,0.7
    C181.2,125.4,178.4,125.9,175.5,126.5z M183.5,142.5c2.3-0.5,4.7-0.8,7-1c2.3-0.2,4.7-0.2,7,0c2.3,0.2,4.6,0.5,6.9,1
    c2.3,0.5,4.5,1.1,6.7,1.9c2.2,0.8,4.3,1.7,6.3,2.8c2,1.1,4,2.3,5.8,3.6c1.8,1.3,3.6,2.8,5.2,4.4c1.6,1.6,3.1,3.3,4.5,5.1
    c1.4,1.8,2.7,3.7,3.8,5.7c1.1,2,2.1,4.1,3,6.2c0.9,2.1,1.6,4.3,2.2,6.6c0.6,2.3,1.1,4.6,1.4,6.9c0.3,2.3,0.5,4.7,0.6,7.1
    c0.1,2.4,0,4.7-0.2,7.1c-0.2,2.4-0.5,4.7-1,7c-0.5,2.3-1.1,4.6-1.8,6.8c-0.7,2.2-1.6,4.4-2.5,6.5c-0.9,2.1-2,4.1-3.2,6.1
    c-1.2,2-2.5,3.8-3.9,5.6c-1.4,1.8-2.9,3.5-4.5,5.1c-1.6,1.6-3.3,3-5.1,4.4c-1.8,1.4-3.7,2.6-5.6,3.7c-1.9,1.1-4,2-6.1,2.8
    c-2.1,0.8-4.2,1.5-6.4,2c-2.2,0.5-4.4,0.9-6.6,1.1c-2.2,0.2-4.5,0.3-6.7,0.2c-2.2-0.1-4.5-0.3-6.7-0.7c-2.2-0.4-4.4-0.9-6.5-1.5
    c-2.1-0.6-4.2-1.4-6.2-2.3c-2-0.9-4-1.9-5.9-3c-1.9-1.1-3.7-2.3-5.4-3.7c-1.7-1.4-3.3-2.8-4.8-4.4c-1.5-1.6-2.9-3.2-4.2-5
    c-1.3-1.8-2.5-3.6-3.5-5.5c-1-1.9-2-3.9-2.8-5.9c-0.8-2-1.5-4.1-2.1-6.2c-0.6-2.1-1.1-4.3-1.5-6.5c-0.4-2.2-0.6-4.4-0.8-6.6
    c-0.2-2.2-0.2-4.5-0.1-6.7c0.1-2.2,0.3-4.5,0.7-6.7c0.4-2.2,0.9-4.4,1.5-6.5c0.6-2.1,1.4-4.2,2.3-6.3c0.9-2.1,1.9-4,3-5.9
    c1.1-1.9,2.3-3.7,3.6-5.4c1.3-1.7,2.7-3.3,4.2-4.8c1.5-1.5,3.1-2.9,4.8-4.2c1.7-1.3,3.4-2.5,5.3-3.5c1.9-1,3.8-1.9,5.8-2.7
    C179.1,143.5,181.2,142.9,183.5,142.5z" fill="#3E002F"/>
  <path d="M329.5,126.5c-2.9,0.6-5.6,1.5-8.1,2.6c-2.5,1.1-4.8,2.5-7,4.1c-2.2,1.6-4.2,3.4-6,5.4c-1.8,2-3.5,4.2-5,6.5
    c-1.5,2.3-2.8,4.8-4,7.4c-1.2,2.6-2.2,5.3-3,8.1c-0.8,2.8-1.5,5.7-2,8.6c-0.5,2.9-0.8,5.9-1,8.9c-0.2,3-0.2,6-0.1,9
    c0.1,3,0.4,6,0.8,9c0.4,3,1,5.9,1.7,8.8c0.7,2.9,1.6,5.7,2.6,8.5c1,2.8,2.2,5.5,3.5,8.1c1.3,2.6,2.8,5.1,4.4,7.5
    c1.6,2.4,3.4,4.7,5.3,6.8c1.9,2.1,4,4.1,6.2,5.9c2.2,1.8,4.6,3.4,7,4.9c2.4,1.5,5,2.7,7.6,3.8c2.6,1.1,5.4,1.9,8.2,2.6
    c2.8,0.7,5.7,1.1,8.6,1.4c2.9,0.3,5.8,0.4,8.7,0.3c2.9-0.1,5.8-0.4,8.7-0.8c2.9-0.4,5.7-1,8.5-1.8c2.8-0.8,5.5-1.7,8.1-2.8
    c2.6-1.1,5.1-2.3,7.5-3.7c2.4-1.4,4.7-2.9,6.9-4.6c2.2-1.7,4.2-3.5,6.1-5.4c1.9-1.9,3.7-4,5.3-6.1c1.6-2.1,3.1-4.4,4.5-6.7
    c1.4-2.3,2.6-4.7,3.7-7.2c1.1-2.5,2-5,2.8-7.6c0.8-2.6,1.4-5.3,1.9-8c0.5-2.7,0.8-5.4,1-8.2c0.2-2.8,0.2-5.6,0.1-8.4
    c-0.1-2.8-0.4-5.6-0.8-8.4c-0.4-2.8-1-5.5-1.7-8.2c-0.7-2.7-1.5-5.3-2.5-7.9c-1-2.6-2.1-5.1-3.3-7.5c-1.2-2.4-2.6-4.7-4.1-6.9
    c-1.5-2.2-3.1-4.3-4.8-6.3c-1.7-2-3.6-3.8-5.5-5.5c-1.9-1.7-4-3.3-6.1-4.7c-2.1-1.4-4.4-2.7-6.7-3.8c-2.3-1.1-4.7-2.1-7.1-2.9
    c-2.4-0.8-4.9-1.5-7.5-2c-2.6-0.5-5.2-0.9-7.8-1.1c-2.6-0.2-5.3-0.3-7.9-0.2c-2.6,0.1-5.3,0.3-7.9,0.7
    C335.2,125.4,332.4,125.9,329.5,126.5z M337.5,142.5c2.3-0.5,4.7-0.8,7-1c2.3-0.2,4.7-0.2,7,0c2.3,0.2,4.6,0.5,6.9,1
    c2.3,0.5,4.5,1.1,6.7,1.9c2.2,0.8,4.3,1.7,6.3,2.8c2,1.1,4,2.3,5.8,3.6c1.8,1.3,3.6,2.8,5.2,4.4c1.6,1.6,3.1,3.3,4.5,5.1
    c1.4,1.8,2.7,3.7,3.8,5.7c1.1,2,2.1,4.1,3,6.2c0.9,2.1,1.6,4.3,2.2,6.6c0.6,2.3,1.1,4.6,1.4,6.9c0.3,2.3,0.5,4.7,0.6,7.1
    c0.1,2.4,0,4.7-0.2,7.1c-0.2,2.4-0.5,4.7-1,7c-0.5,2.3-1.1,4.6-1.8,6.8c-0.7,2.2-1.6,4.4-2.5,6.5c-0.9,2.1-2,4.1-3.2,6.1
    c-1.2,2-2.5,3.8-3.9,5.6c-1.4,1.8-2.9,3.5-4.5,5.1c-1.6,1.6-3.3,3-5.1,4.4c-1.8,1.4-3.7,2.6-5.6,3.7c-1.9,1.1-4,2-6.1,2.8
    c-2.1,0.8-4.2,1.5-6.4,2c-2.2,0.5-4.4,0.9-6.6,1.1c-2.2,0.2-4.5,0.3-6.7,0.2c-2.2-0.1-4.5-0.3-6.7-0.7c-2.2-0.4-4.4-0.9-6.5-1.5
    c-2.1-0.6-4.2-1.4-6.2-2.3c-2-0.9-4-1.9-5.9-3c-1.9-1.1-3.7-2.3-5.4-3.7c-1.7-1.4-3.3-2.8-4.8-4.4c-1.5-1.6-2.9-3.2-4.2-5
    c-1.3-1.8-2.5-3.6-3.5-5.5c-1-1.9-2-3.9-2.8-5.9c-0.8-2-1.5-4.1-2.1-6.2c-0.6-2.1-1.1-4.3-1.5-6.5c-0.4-2.2-0.6-4.4-0.8-6.6
    c-0.2-2.2-0.2-4.5-0.1-6.7c0.1-2.2,0.3-4.5,0.7-6.7c0.4-2.2,0.9-4.4,1.5-6.5c0.6-2.1,1.4-4.2,2.3-6.3c0.9-2.1,1.9-4,3-5.9
    c1.1-1.9,2.3-3.7,3.6-5.4c1.3-1.7,2.7-3.3,4.2-4.8c1.5-1.5,3.1-2.9,4.8-4.2c1.7-1.3,3.4-2.5,5.3-3.5c1.9-1,3.8-1.9,5.8-2.7
    C333.1,143.5,335.2,142.9,337.5,142.5z" fill="#3E002F"/>
</svg>
